<svg width="660" height="677" viewBox="0 0 660 677" fill="none" xmlns="http://www.w3.org/2000/svg">
<g opacity="0.99">
<path d="M521.498 245.998C521.498 245.998 560.998 232.997 577.498 280.497C593.998 327.997 559.5 343.998 559.5 343.998C559.5 343.998 559 327.998 552 314.498C545 300.998 532.197 290.497 532.197 290.497L521.498 245.998Z" fill="#FDA948"/>
<path d="M517 246.5L533.5 244.5C533.5 244.5 542.998 271 544.498 276C545.998 281 558.5 334.5 558.5 334.5L545 331L535.5 330.5L534.496 324.5L517 246.5Z" fill="#FB6D13"/>
<path d="M556.998 329C556.998 329 564.998 321.5 569.998 315C574.998 308.5 577.998 299 577.998 299L580.498 317.5L572.998 331.5L558.998 345C558.998 345 558.873 339 558.498 336C558.123 333 556.998 329 556.998 329Z" fill="#FB6D13"/>
<path fill-rule="evenodd" clip-rule="evenodd" d="M560.061 353.426C560.058 353.427 560.056 353.429 557.998 349.999C555.94 346.569 555.939 346.57 555.937 346.571L555.934 346.573C555.94 346.569 555.954 346.56 555.976 346.547C556.019 346.519 556.094 346.472 556.197 346.404C556.404 346.269 556.724 346.054 557.138 345.756C557.965 345.162 559.162 344.244 560.567 342.994C563.381 340.491 566.992 336.691 570.15 331.535C576.386 321.351 581.059 305.568 573.7 283.252C566.411 261.15 552.659 252.669 540.891 249.485C534.906 247.866 529.34 247.6 525.259 247.746C523.224 247.819 521.578 247.993 520.459 248.146C519.9 248.222 519.474 248.292 519.198 248.342C519.06 248.366 518.96 248.385 518.9 248.397C518.87 248.403 518.85 248.407 518.841 248.409L518.839 248.41C518.841 248.409 518.842 248.409 517.998 244.499C517.154 240.589 517.156 240.588 517.159 240.588L517.179 240.584L517.22 240.575C517.253 240.568 517.296 240.559 517.35 240.549C517.457 240.528 517.606 240.499 517.794 240.466C518.171 240.399 518.705 240.311 519.379 240.219C520.727 240.036 522.639 239.835 524.972 239.751C529.626 239.585 536.028 239.882 542.98 241.763C557.088 245.579 573.086 255.848 581.297 280.746C589.438 305.43 584.36 323.647 576.972 335.713C573.317 341.681 569.147 346.069 565.883 348.972C564.249 350.426 562.832 351.516 561.806 352.253C561.293 352.622 560.876 352.903 560.578 353.098C560.429 353.196 560.309 353.272 560.221 353.327C560.177 353.355 560.141 353.377 560.114 353.394L560.079 353.415L560.066 353.423L560.061 353.426ZM555.931 346.575L555.934 346.573C555.931 346.574 555.93 346.575 555.931 346.575Z" fill="black"/>
<path d="M551.502 394.498C551.502 394.498 568.502 399.996 574.502 411.496C580.502 422.996 574.502 436.496 574.502 436.496L551.502 459.496V394.498Z" fill="#FDA948"/>
<path d="M540 391.498L551.5 393.498L552.5 458.498C552.5 458.498 558 452.998 565 445.998C572 438.998 577.5 429.998 577.5 429.998C577.5 429.998 578 447.498 574 456.998C570 466.498 540 479.998 540 479.998V391.498Z" fill="#FB6D13"/>
<path fill-rule="evenodd" clip-rule="evenodd" d="M556.519 469.174C565.882 461.766 575.096 450.468 576.009 434.272C576.918 418.146 569.283 407.79 561.239 401.298C557.186 398.028 553.052 395.769 549.922 394.328C548.362 393.61 547.067 393.103 546.177 392.779C545.732 392.618 545.389 392.503 545.167 392.43C545.056 392.394 544.975 392.369 544.926 392.354L544.878 392.339C544.875 392.338 544.873 392.338 544.873 392.338L544.875 392.338L544.877 392.339C544.879 392.339 544.88 392.34 546 388.5C547.119 384.66 547.121 384.66 547.123 384.661L547.128 384.662L547.14 384.666L547.173 384.676C547.2 384.684 547.236 384.694 547.279 384.708C547.367 384.735 547.488 384.773 547.64 384.822C547.944 384.921 548.373 385.066 548.909 385.261C549.98 385.65 551.482 386.24 553.266 387.061C556.824 388.698 561.566 391.282 566.263 395.073C575.721 402.705 585.088 415.348 583.996 434.722C582.908 454.027 571.87 467.23 561.482 475.448C556.277 479.566 551.154 482.503 547.335 484.413C545.421 485.37 543.823 486.075 542.69 486.545C542.124 486.78 541.672 486.957 541.355 487.078C541.196 487.138 541.071 487.184 540.982 487.217C540.956 487.226 540.934 487.235 540.914 487.242C540.899 487.247 540.886 487.252 540.874 487.256L540.841 487.268L540.83 487.272L540.826 487.273C540.824 487.274 540.822 487.274 539.499 483.5C538.175 479.725 538.174 479.725 538.173 479.726L538.179 479.724L538.237 479.703C538.293 479.682 538.385 479.648 538.508 479.601C538.756 479.507 539.134 479.359 539.624 479.156C540.605 478.749 542.03 478.121 543.757 477.258C547.22 475.526 551.848 472.869 556.519 469.174Z" fill="black"/>
<path d="M152.5 428C138 419.5 130.5 397.5 133 381.5C135.5 365.5 141.499 352.501 154.499 350.5C167.499 348.499 233.766 381.5 233.766 381.5L237.499 355.001L188.999 304.501C188.999 304.501 148.999 243.5 188.999 175.501C201.999 155.002 227.499 121.001 305.999 110.501C384.499 100.001 460.499 168.501 460.499 168.501C460.499 168.501 524.499 234.501 525.999 285.501L530.5 333.5C530.5 333.5 576 339 577.5 370C579 401 537.499 437 537.499 437V505.001C548 584 622.499 588.001 622.499 588.001C622.499 588.001 641.5 627 577.999 648.501C514.499 670.002 473.999 614.001 473.999 614.001L463.499 655.501C463.499 655.501 459.5 671.5 401.499 667.001C343.499 662.502 338.499 648.501 338.499 648.501L322.499 604.001L305.499 648.501C305.499 648.501 257.5 667.001 212.499 632.001C167.498 597.001 217.266 423 217.266 423C217.266 423 167 436.5 152.5 428Z" fill="#6EBBB0"/>
<path d="M264.499 112.474C263.166 93.0902 273.799 61.7149 324.999 57.7724C376.199 53.8299 390.666 93.9661 392.499 114.5L349.5 101.5L293.5 102.5L264.499 112.474Z" fill="#FDA948"/>
<path d="M264.498 109C264.498 109 274.998 96.4999 321.498 95.5013C367.998 94.5028 391.998 110.001 391.998 110.001L390.498 121.5C390.498 121.5 370.498 106.001 323.998 107.5C277.498 108.999 270.498 111.5 270.498 111.5L264.498 109Z" fill="#FB6D13"/>
<path fill-rule="evenodd" clip-rule="evenodd" d="M378.072 84.6259C369.463 72.8794 354.59 63.5685 328.883 64.5741C302.713 65.5978 287.83 73.5077 279.559 83.0908C271.236 92.7333 269.029 104.736 269.579 115.034L261.59 115.461C260.969 103.826 263.419 89.5465 273.503 77.8635C283.638 66.121 300.912 57.6621 328.57 56.5802C356.69 55.4803 374.204 65.814 384.525 79.8969C394.664 93.7315 397.5 110.678 397.5 122.5H389.5C389.5 111.688 386.863 96.6206 378.072 84.6259Z" fill="black"/>
<path d="M417.929 134.509C429.215 118.705 456.245 100.221 493.804 125.563C531.363 150.905 516.016 190.123 504.35 207.098L483.071 173.139L444.075 142.847L417.929 134.509Z" fill="#FDA948"/>
<path d="M430 125.5L468.999 150.5C485.999 158.999 515.997 190 515.997 190L499.09 211.819C499.09 211.819 485.998 187.5 460.998 166C435.998 144.5 422.653 137.08 422.653 137.08L430 125.5Z" fill="#FB6D13"/>
<path d="M516.999 166L513.998 189L504.499 179.499C504.499 179.499 507 175 508 169C509 163 510 151 510 151L516.999 166Z" fill="#FB6D13"/>
<path fill-rule="evenodd" clip-rule="evenodd" d="M513.572 174.152C514.611 160.953 510.005 146.171 492.084 132.856C461.466 110.107 433.275 122.018 422.412 136.898L415.95 132.181C429.333 113.851 462.533 100.933 496.855 126.434C516.897 141.325 522.811 158.728 521.547 174.78C520.309 190.5 512.242 204.409 505.284 213.001L499.067 207.967C505.444 200.092 512.506 187.683 513.572 174.152Z" fill="black"/>
<path d="M540.5 507.998H550.498L566.498 535.998L585.498 561.998L594.998 540.498C594.998 540.498 596.998 549.998 595.998 557.998C594.998 565.998 590.999 578.498 590.999 578.498C590.999 578.498 568.999 569.498 554.999 546.998C540.999 524.498 540.5 507.998 540.5 507.998Z" fill="#FB6D13"/>
<path d="M550.498 507.997C550.498 507.997 575.998 506.998 585.498 518.998C594.998 530.998 594.998 540.498 594.998 540.498L585.998 562.498C585.998 562.498 571.998 545.998 565.998 536.998C559.998 527.998 550.498 507.997 550.498 507.997Z" fill="#FDA948"/>
<path fill-rule="evenodd" clip-rule="evenodd" d="M541.274 508.922C541.275 508.922 541.276 508.922 540.498 504.998C539.721 501.075 539.722 501.074 539.724 501.074L539.728 501.073L539.739 501.071L539.771 501.065C539.798 501.06 539.833 501.053 539.877 501.045C539.965 501.028 540.089 501.006 540.246 500.979C540.561 500.924 541.012 500.851 541.582 500.769C542.722 500.604 544.347 500.404 546.334 500.252C550.298 499.949 555.769 499.831 561.755 500.593C573.65 502.107 588.286 507.218 596.498 522.062C604.379 536.306 604.744 550.759 603.207 561.502C602.437 566.883 601.184 571.388 600.119 574.56C599.586 576.149 599.097 577.411 598.735 578.289C598.554 578.728 598.405 579.072 598.297 579.313C598.243 579.434 598.2 579.529 598.168 579.598C598.152 579.633 598.139 579.66 598.129 579.682L598.116 579.708L598.112 579.718L598.11 579.722C598.109 579.723 598.108 579.725 594.5 577.998C590.892 576.271 590.891 576.273 590.891 576.274L590.907 576.239C590.924 576.202 590.953 576.139 590.992 576.052C591.07 575.878 591.189 575.605 591.339 575.241C591.639 574.511 592.064 573.418 592.535 572.014C593.479 569.202 594.6 565.176 595.288 560.37C596.665 550.739 596.279 538.191 589.498 525.935C583.049 514.279 571.435 509.89 560.745 508.529C555.439 507.853 550.534 507.954 546.945 508.229C545.156 508.366 543.71 508.545 542.724 508.687C542.231 508.758 541.854 508.82 541.607 508.862C541.484 508.883 541.394 508.9 541.338 508.91L541.28 508.921L541.274 508.922Z" fill="black"/>
<path d="M393 255.5C393 255.5 390 245.82 402.999 230.5C415.998 215.18 432.499 215.501 432.499 215.501C476.998 212.5 478.999 241.001 478.999 241.001C478.999 241.001 482.499 269.5 440.999 277C399.499 284.5 393 255.5 393 255.5Z" fill="#FDA948"/>
<path d="M432.917 232.383C432.917 232.383 431.999 229.999 435 228.315C438.001 226.631 439.806 228.316 439.806 228.316L456.585 256.732C456.585 256.732 457.499 260.5 454.999 262C452.499 263.5 449.696 260.799 449.696 260.799L432.917 232.383Z" fill="black"/>
<path d="M411.499 248.499C411.499 248.499 409.844 244.078 412.891 242.479C415.938 240.881 418.5 244.5 418.5 244.5L428.342 262.211C428.342 262.211 428.588 265.023 426.034 266.429C423.481 267.835 421.316 266.035 421.316 266.035L411.499 248.499Z" fill="black"/>
<g opacity="0.99">
<path d="M240 271.998C240 271.998 236.999 243.998 262.5 245.998C288 247.998 289.5 255 289.5 255C289.5 255 301.5 241.5 308.5 241C315.5 240.5 325 253.998 329 253.499C333 252.999 357.5 242 357.5 242C357.5 242 377.5 234.499 380.5 264.498C383.5 294.497 363.5 294.498 363.5 294.498C363.5 294.498 339.501 251.715 306 259.498C272.5 267.282 267.5 297.498 267.5 297.498C267.5 297.498 241.5 301.498 240 271.998Z" fill="#FCA747"/>
<path d="M311.999 258.001C357.499 251.001 363.499 294 363.499 294C363.499 294 355.999 296 347.999 296.5C339.999 297 329.999 295 329.999 295L305.999 283.5C305.999 283.5 288.499 293.001 283.499 294.001C278.499 295.001 267.5 297 267.5 297C267.5 297 266.499 265.001 311.999 258.001Z" fill="#FA6C12"/>
<path fill-rule="evenodd" clip-rule="evenodd" d="M242.236 264.653C241.288 269.163 241.577 275.199 244.29 283.22C246.78 290.583 250.899 293.844 255.605 295.146C260.649 296.541 266.934 295.833 273.718 293.903C280.431 291.994 287.108 289.048 292.781 286.481C293.156 286.312 293.527 286.143 293.895 285.976C296.26 284.904 298.471 283.902 300.334 283.146C301.418 282.706 302.466 282.316 303.424 282.03C304.323 281.762 305.415 281.501 306.5 281.501C309.582 281.501 311.767 282.587 313.648 283.861C314.266 284.279 314.93 284.774 315.548 285.235C315.767 285.399 315.981 285.558 316.185 285.708C317.021 286.324 317.904 286.948 318.946 287.579C322.987 290.025 330.181 293.034 346.242 294.007C361.771 294.949 369.068 290.264 372.806 284.705C376.825 278.73 377.501 270.706 377.5 263.501C377.498 251.265 367.343 243.501 359.498 243.501C357.772 243.501 355.788 244.026 353.482 245.039C351.18 246.049 348.815 247.426 346.307 248.931C346.033 249.095 345.757 249.262 345.479 249.429C343.294 250.744 340.976 252.139 338.748 253.223C336.268 254.43 333.418 255.501 330.498 255.501C327.285 255.501 324.822 254.169 322.901 252.588C321.489 251.427 320.147 249.921 319.015 248.65C318.74 248.342 318.477 248.047 318.229 247.774C315.494 244.773 312.976 242.578 308.431 242.501C306.216 242.463 304.782 243.079 303.655 243.941C302.408 244.894 301.359 246.284 300.188 248.128C299.962 248.484 299.72 248.878 299.464 249.295C298.555 250.775 297.467 252.547 296.284 253.934C294.611 255.895 292.222 257.776 288.747 257.994C283.239 258.339 279.576 255.005 277.088 252.742C276.87 252.544 276.661 252.354 276.46 252.175C273.731 249.741 271.444 248.001 267.501 248.002C262.495 248.002 253.974 249.531 248.176 254.531C245.373 256.948 243.172 260.196 242.236 264.653ZM242.951 248.473C250.778 241.723 261.507 240.002 267.501 240.002C274.557 240.001 278.767 243.512 281.785 246.204C285.046 249.112 286.235 250.135 288.247 250.009C288.773 249.976 289.322 249.768 290.197 248.742C290.94 247.871 291.561 246.863 292.379 245.534C292.695 245.021 293.041 244.459 293.434 243.84C294.7 241.846 296.369 239.441 298.795 237.586C301.339 235.64 304.53 234.434 308.566 234.502C316.523 234.637 321.003 238.941 324.142 242.387C324.539 242.822 324.898 243.224 325.232 243.597C326.298 244.788 327.095 245.679 327.984 246.411C328.985 247.235 329.709 247.501 330.498 247.501C331.579 247.501 333.104 247.073 335.249 246.029C337.133 245.113 339.125 243.915 341.362 242.569C341.635 242.405 341.911 242.239 342.191 242.071C344.683 240.576 347.443 238.953 350.266 237.714C353.084 236.476 356.224 235.501 359.498 235.501C371.649 235.501 385.497 246.735 385.5 263.499C385.501 270.794 384.926 281.02 379.444 289.17C373.683 297.736 363.228 303.052 345.758 301.993C328.818 300.966 320.262 297.726 314.804 294.423C313.47 293.616 312.369 292.834 311.44 292.149C311.132 291.923 310.86 291.72 310.611 291.534C310.059 291.122 309.62 290.794 309.163 290.485C308.05 289.731 307.423 289.503 306.511 289.501C306.515 289.501 306.517 289.501 306.517 289.501C306.517 289.504 306.283 289.525 305.709 289.697C305.101 289.878 304.319 290.163 303.343 290.559C301.64 291.25 299.599 292.175 297.211 293.257C296.842 293.424 296.464 293.596 296.078 293.77C290.423 296.329 283.256 299.508 275.907 301.598C268.629 303.668 260.632 304.836 253.473 302.856C245.976 300.783 239.971 295.419 236.711 285.783C233.674 276.804 233.089 269.278 234.407 263.007C235.736 256.683 238.941 251.931 242.951 248.473Z" fill="black"/>
</g>
<path d="M378.479 182.5C378.479 182.5 383.502 179.499 385.501 183.499C387.501 187.499 383.667 189.396 383.667 189.396L363.689 204.425C363.689 204.425 358.501 207.5 356.501 204C354.5 200.5 358.501 197.529 358.501 197.529L378.479 182.5Z" fill="black"/>
<path d="M247.298 187.505C247.298 187.505 243.952 182.966 247.711 180.553C251.469 178.139 253.637 181.65 253.637 181.65L269.978 199.344C269.978 199.344 273.769 204.144 270.5 206.5C267.231 208.856 263.639 205.198 263.639 205.198L247.298 187.505Z" fill="black"/>
<path d="M371 209.5C371 209.5 374.5 205 380.5 205C386.5 205 397 211 395 220.5C393 230 386 234.031 380.5 233C375 231.969 370 229.5 367.5 223C365 216.5 371 209.5 371 209.5Z" fill="black"/>
<path d="M230.5 218.5C230.5 212.5 234.5 205 244 205C253.5 205 257.5 211.5 257.5 218.5C257.5 225.5 252 230.5 244 230.5C236 230.5 230.5 224.5 230.5 218.5Z" fill="black"/>
<path d="M395.5 482C395.5 518.727 361.474 548.5 319.5 548.5C277.526 548.5 243.5 518.727 243.5 482C243.5 445.273 277.526 397.5 319.5 397.5C361.474 397.5 395.5 445.273 395.5 482Z" fill="#A0D3C6"/>
<path d="M380.5 215.5H382.5L383.5 216.5V217.5H384.5V221.5H383.5V222.5H382.5V223.5H380.5V222.5H378.5V221.5H377.5V220.5H376.5V217.5H377.5V216.5H378.5V215.5H380.5Z" fill="white"/>
<path d="M242.5 214.5H243.5V215.5H244.5V216.5H245.5V217.5H247.5V219.5H246.5V220.5H242.5V219.5H240.5V216.5H241.5V215.5H242.5V214.5Z" fill="white"/>
<path fill-rule="evenodd" clip-rule="evenodd" d="M555.987 355.157C557.556 357.082 557.269 359.913 555.347 361.484L555.335 361.494C555.32 361.506 555.292 361.529 555.253 361.562C555.175 361.628 555.051 361.735 554.884 361.882C554.551 362.176 554.052 362.628 553.429 363.23C552.18 364.435 550.441 366.231 548.536 368.546C544.706 373.201 540.315 379.821 537.792 387.849C535.214 396.051 535.335 401.169 535.86 403.987C536.124 405.401 536.497 406.283 536.728 406.732C536.834 406.938 536.913 407.06 536.944 407.105C538.488 408.939 538.324 411.682 536.54 413.317C534.708 414.996 531.861 414.873 530.182 413.041L533.499 410C530.182 413.041 530.179 413.037 530.176 413.034L530.17 413.028L530.157 413.014L530.131 412.985C530.113 412.965 530.094 412.943 530.074 412.919C530.033 412.871 529.987 412.817 529.938 412.755C529.838 412.632 529.722 412.481 529.594 412.299C529.339 411.936 529.036 411.455 528.723 410.846C528.094 409.623 527.437 407.911 527.013 405.637C526.163 401.081 526.284 394.449 529.206 385.151C532.183 375.678 537.291 368.048 541.586 362.828C543.744 360.206 545.724 358.158 547.178 356.754C547.906 356.051 548.505 355.508 548.932 355.131C549.145 354.943 549.316 354.797 549.438 354.693C549.5 354.641 549.549 354.6 549.585 354.57L549.631 354.532L549.646 354.52L549.654 354.513C549.655 354.512 549.656 354.511 552.499 358L549.656 354.511C551.583 352.941 554.418 353.231 555.987 355.157Z" fill="black"/>
<path fill-rule="evenodd" clip-rule="evenodd" d="M562.488 351.097C556.976 342.709 550.401 337.501 543.498 337.5C539.557 337.5 531.61 339.114 521.334 341.827C511.267 344.485 499.518 348.041 488.298 351.612C477.086 355.181 466.445 358.752 458.604 361.432C454.684 362.771 451.466 363.887 449.23 364.668C448.112 365.058 447.239 365.364 446.647 365.573C446.35 365.677 446.124 365.757 445.973 365.811L445.746 365.891C445.745 365.891 445.745 365.891 444.241 361.65C442.736 357.409 442.737 357.409 442.737 357.409L442.973 357.325C443.128 357.27 443.358 357.189 443.658 357.084C444.257 356.873 445.138 356.564 446.264 356.17C448.516 355.384 451.753 354.262 455.693 352.915C463.572 350.223 474.277 346.63 485.568 343.036C496.849 339.445 508.759 335.839 519.037 333.125C529.106 330.466 538.191 328.5 543.499 328.5C555.096 328.501 564.022 337.043 570.009 346.154C576.118 355.45 580.089 366.668 581.437 374.76C582.896 383.52 580.902 391.148 576.553 399.512C572.917 406.504 567.431 414.374 560.646 424.106C559.53 425.707 558.379 427.359 557.195 429.065L557.057 429.264L556.899 429.447C549.371 438.133 538.887 441.745 528.018 442.55C517.187 443.352 505.576 441.411 495.082 438.596C484.548 435.769 474.89 431.992 467.887 428.936C464.378 427.405 461.518 426.047 459.528 425.068C458.533 424.578 457.754 424.183 457.219 423.907C456.952 423.769 456.745 423.662 456.603 423.587C456.532 423.549 456.477 423.52 456.438 423.5L456.393 423.476L456.379 423.468L456.375 423.466C456.374 423.465 456.372 423.465 458.499 419.499L456.372 423.465C454.182 422.29 453.359 419.563 454.533 417.372C455.708 415.182 458.435 414.359 460.625 415.533M460.626 415.533L460.66 415.552C460.688 415.566 460.733 415.59 460.793 415.622C460.913 415.685 461.097 415.781 461.342 415.907C461.83 416.159 462.559 416.529 463.501 416.992C465.386 417.92 468.12 419.218 471.486 420.687C478.232 423.631 487.449 427.229 497.415 429.903C507.421 432.588 517.935 434.272 527.353 433.574C536.647 432.886 544.479 429.922 549.944 423.727C551.106 422.054 552.224 420.449 553.299 418.906C560.134 409.096 565.224 401.791 568.568 395.36C572.343 388.098 573.599 382.477 572.56 376.238C571.409 369.331 567.88 359.302 562.488 351.097M440 363.155C439.169 360.813 440.394 358.24 442.736 357.409L444.241 361.65L445.746 365.891C443.404 366.722 440.831 365.497 440 363.155Z" fill="black"/>
<path fill-rule="evenodd" clip-rule="evenodd" d="M369.005 530.06C379.969 521.877 387.99 508.195 390.566 484.796C395.505 439.932 358.414 400 319.499 400C300.41 400 282.145 409.71 268.575 425.436C255.06 441.1 246.904 461.983 247.486 482.903C249.612 509.453 257.964 523.318 268.885 531.107C280.448 539.356 297.153 542.5 319.499 542.5C341.359 542.5 357.671 538.519 369.005 530.06ZM236.499 483.5C240.999 541 273.66 553.5 319.499 553.5C365.339 553.5 395.885 537 401.5 486C407.115 435 365.339 389 319.499 389C273.66 389 235 435.5 236.499 483.5Z" fill="black"/>
<path fill-rule="evenodd" clip-rule="evenodd" d="M324.545 507.696C323.333 508.825 321.434 508.757 320.305 507.545L300.497 486.271C299.368 485.059 299.435 483.16 300.648 482.031C301.86 480.902 303.759 480.97 304.888 482.182L324.696 503.456C325.825 504.668 325.758 506.567 324.545 507.696Z" fill="black"/>
<path fill-rule="evenodd" clip-rule="evenodd" d="M323.688 485.448C324.822 486.657 324.76 488.555 323.552 489.689L302.551 509.379C301.342 510.512 299.444 510.451 298.311 509.242C297.177 508.034 297.239 506.135 298.447 505.002L319.448 485.312C320.657 484.178 322.555 484.24 323.688 485.448Z" fill="black"/>
<path fill-rule="evenodd" clip-rule="evenodd" d="M136.366 393.754C138.409 403.673 143.249 413.968 150.114 422.489C151.267 423.92 153.28 425.233 156.391 426.26C159.477 427.279 163.349 427.918 167.83 428.21C176.794 428.794 187.601 427.958 198.153 426.535C208.668 425.116 218.76 423.139 226.235 421.513C229.969 420.7 233.04 419.977 235.175 419.458C236.242 419.199 237.074 418.991 237.637 418.848C237.918 418.777 238.133 418.722 238.275 418.685L238.434 418.644L238.473 418.634L238.483 418.631C240.619 418.07 242.807 419.346 243.368 421.483C243.93 423.62 242.653 425.807 240.516 426.368L239.5 422.5C240.516 426.368 240.515 426.369 240.514 426.369L240.452 426.385L240.276 426.431C240.122 426.47 239.896 426.528 239.603 426.603C239.016 426.752 238.159 426.966 237.065 427.232C234.877 427.764 231.741 428.502 227.936 429.33C220.333 430.984 210.019 433.007 199.222 434.463C188.462 435.914 177.05 436.828 167.31 436.193C162.44 435.876 157.839 435.163 153.883 433.857C149.953 432.56 146.356 430.576 143.884 427.508C136.247 418.029 130.838 406.574 128.53 395.368C126.234 384.218 126.929 372.863 132.144 363.974C133.182 362.205 134.198 360.413 135.137 358.756C136.09 357.076 136.964 355.535 137.7 354.301C139.275 351.66 140.865 349.278 142.827 347.412C147.167 343.286 152.451 342.486 160.266 343.008C164.736 343.306 171.58 345.592 178.82 348.469C186.25 351.422 194.683 355.246 202.594 359.012C210.513 362.784 217.955 366.52 223.415 369.312C226.145 370.709 228.383 371.871 229.938 372.684C230.717 373.091 231.324 373.41 231.739 373.629C231.946 373.738 232.104 373.822 232.212 373.879L232.376 373.966C232.377 373.966 232.377 373.966 230.5 377.498C228.622 381.03 228.622 381.03 228.622 381.03L228.621 381.029L228.468 380.949C228.407 380.916 228.328 380.874 228.231 380.823C228.164 380.788 228.09 380.749 228.007 380.705C227.601 380.491 227.002 380.176 226.233 379.774C224.695 378.97 222.479 377.819 219.772 376.435C214.356 373.665 206.985 369.964 199.154 366.235C191.314 362.502 183.06 358.763 175.865 355.904C168.481 352.969 162.763 351.192 159.734 350.99C152.551 350.511 150.179 351.461 148.339 353.21C147.212 354.282 146.081 355.868 144.57 358.399C143.77 359.74 143.013 361.08 142.157 362.596C141.276 364.155 140.29 365.899 139.044 368.023C135.165 374.634 134.312 383.779 136.366 393.754ZM234.032 379.376C232.995 381.326 230.573 382.067 228.622 381.03L230.5 377.498L232.377 373.966C234.328 375.003 235.069 377.425 234.032 379.376Z" fill="black"/>
<path d="M470 645.5C470 645.5 458 669 402.501 667.5C370.469 667.5 344.001 660 343.001 655C339 647 370.469 634 402.501 634C434.534 634 470 645.5 470 645.5Z" fill="#2F8A7A"/>
<path d="M621 594.5C621 594.5 628.996 651.5 554.496 649C505 658 487 625 486 620C481.999 612 522.464 633.5 554.496 633.5C583 633.5 621 594.5 621 594.5Z" fill="#2F8A7A"/>
<path d="M309 642.5C309 642.5 314.166 652.5 258.667 651C226.635 651 218 643 217 638C212.999 630 226.635 624 258.667 624C290.7 624 309 642.5 309 642.5Z" fill="#2F8A7A"/>
<path fill-rule="evenodd" clip-rule="evenodd" d="M225.984 638.43C233.197 642.067 244.542 646.043 260.734 647.01C277.628 648.018 288.033 648.612 295.002 648.076C301.704 647.56 304.323 646.065 306.373 643.503C306.71 643.082 307.179 642.224 307.7 640.743C308.202 639.315 308.67 637.552 309.123 635.515C309.729 632.786 310.258 629.82 310.807 626.734C311.091 625.137 311.381 623.507 311.691 621.862C312.562 617.235 313.592 612.465 315.083 608.865C315.825 607.073 316.813 605.237 318.214 603.842C319.722 602.34 321.825 601.265 324.395 601.522C326.88 601.77 328.746 603.17 330.055 604.696C331.346 606.2 332.336 608.091 333.132 610.021C334.725 613.888 335.911 618.858 336.913 623.719C337.39 626.033 337.813 628.253 338.222 630.396C338.718 633 339.193 635.49 339.716 637.895C340.174 640.003 340.629 641.84 341.1 643.338C341.589 644.895 342.017 645.823 342.323 646.282C342.387 646.378 342.451 646.473 342.514 646.568C343.724 648.385 344.807 650.01 346.475 651.639C348.192 653.313 350.64 655.085 354.573 656.726C362.571 660.063 376.573 662.807 402.526 663.001C428.475 663.195 442.981 660.791 451.387 657.776C455.54 656.286 458.137 654.67 459.885 653.194C461.624 651.724 462.678 650.266 463.67 648.781C463.878 648.469 464.22 647.749 464.619 646.449C464.999 645.209 465.363 643.672 465.715 641.898C466.365 638.626 466.925 634.816 467.489 630.977C467.539 630.639 467.588 630.302 467.638 629.964C468.24 625.875 468.864 621.744 469.61 618.597C469.978 617.045 470.427 615.497 471.02 614.243C471.315 613.619 471.734 612.875 472.339 612.217C472.947 611.556 473.991 610.722 475.501 610.533C476.856 610.364 477.985 610.798 478.628 611.106C479.336 611.445 479.988 611.893 480.548 612.327C481.671 613.198 482.9 614.386 484.147 615.677C485.824 617.413 487.798 619.619 489.903 621.971C490.919 623.106 491.965 624.274 493.022 625.441C496.345 629.105 499.911 632.893 503.503 636.148C507.134 639.438 510.579 641.983 513.633 643.352C516.683 644.719 522.093 645.977 529.189 646.752C536.189 647.516 544.519 647.778 553.224 647.32C570.786 646.395 589.188 642.577 601.306 634.654C613.034 626.986 617.914 614.959 619.809 604.419C620.752 599.174 620.931 594.412 620.872 590.961C620.862 590.43 620.848 589.931 620.829 589.468C619.736 589.546 618.462 589.604 617.031 589.613C612.036 589.646 605.09 589.091 597.179 586.761C581.246 582.066 561.758 570.263 546.491 542.424C540.319 531.168 536.956 522.148 535.132 515.866C534.22 512.726 533.693 510.274 533.392 508.572C533.242 507.721 533.148 507.059 533.09 506.592C533.061 506.359 533.042 506.174 533.029 506.04C533.024 505.994 533.02 505.954 533.017 505.92C533.016 505.904 533.015 505.89 533.014 505.876L533.009 505.823L533.008 505.803L533.007 505.795L533.007 505.791C533.007 505.79 533.007 505.788 536.996 505.5L533.007 505.788L532.996 505.644L532.996 433L540.996 433L540.996 505.317C541.003 505.386 541.014 505.484 541.03 505.611C541.071 505.942 541.144 506.466 541.27 507.178C541.522 508.602 541.984 510.774 542.815 513.635C544.475 519.353 547.614 527.832 553.506 538.577C567.739 564.531 585.5 574.979 599.44 579.087C606.467 581.157 612.614 581.642 616.978 581.613C619.158 581.599 620.886 581.456 622.045 581.322C622.625 581.255 623.061 581.19 623.34 581.145C623.479 581.122 623.579 581.104 623.637 581.094C623.654 581.09 623.667 581.088 623.677 581.086L623.687 581.084L623.692 581.083L623.694 581.083L623.699 581.082L627.871 580.22L628.458 584.451L624.496 585.002C628.458 584.451 628.458 584.453 628.459 584.455L628.459 584.459L628.461 584.47L628.465 584.502C628.468 584.527 628.473 584.562 628.478 584.604C628.489 584.69 628.504 584.809 628.521 584.961C628.555 585.264 628.6 585.697 628.646 586.245C628.739 587.341 628.837 588.904 628.87 590.824C628.936 594.654 628.74 599.955 627.682 605.835C625.577 617.545 619.957 632.018 605.684 641.35C591.803 650.426 571.706 654.358 553.644 655.309C544.537 655.788 535.774 655.518 528.321 654.705C520.964 653.902 514.562 652.535 510.361 650.652C506.166 648.772 501.985 645.568 498.132 642.076C494.24 638.55 490.462 634.526 487.096 630.815C485.935 629.534 484.836 628.306 483.798 627.146C481.764 624.873 479.965 622.862 478.393 621.235C478.051 620.881 477.733 620.558 477.437 620.266C477.423 620.324 477.409 620.382 477.395 620.441C476.744 623.187 476.168 626.953 475.553 631.129C475.502 631.476 475.45 631.826 475.399 632.178C474.842 635.965 474.253 639.975 473.562 643.456C473.183 645.364 472.759 647.192 472.267 648.795C471.794 650.339 471.18 651.94 470.323 653.224C469.184 654.93 467.639 657.116 465.047 659.305C462.463 661.488 458.997 663.546 454.088 665.306C444.369 668.793 428.757 671.197 402.467 671.001C376.182 670.804 360.934 668.049 351.492 664.109C346.704 662.111 343.385 659.801 340.888 657.365C338.596 655.128 337.092 652.864 335.917 651.095C335.832 650.968 335.749 650.843 335.668 650.721C334.724 649.305 334.026 647.511 333.468 645.737C332.892 643.904 332.378 641.799 331.899 639.595C331.381 637.214 330.853 634.454 330.322 631.682C329.907 629.515 329.491 627.341 329.077 625.334C328.08 620.495 327.016 616.178 325.735 613.07C325.094 611.513 324.49 610.495 323.984 609.905C323.888 609.793 323.805 609.707 323.736 609.643C323.421 610.01 322.976 610.715 322.474 611.927C321.34 614.664 320.432 618.669 319.553 623.342C319.277 624.808 319.003 626.345 318.726 627.9C318.157 631.093 317.574 634.362 316.932 637.251C316.447 639.433 315.899 641.542 315.246 643.399C314.611 645.205 313.783 647.046 312.62 648.5C308.67 653.438 303.54 655.443 295.616 656.052C287.961 656.642 276.866 655.987 260.258 654.995C242.949 653.962 230.543 649.688 222.382 645.574C218.308 643.52 215.307 641.514 213.291 639.987C212.284 639.224 211.523 638.581 210.998 638.112C210.735 637.877 210.532 637.686 210.386 637.545C210.313 637.475 210.254 637.417 210.209 637.372C210.187 637.35 210.168 637.331 210.153 637.316L210.133 637.295L210.121 637.283C210.12 637.281 210.118 637.28 212.996 634.502C210.096 637.257 210.094 637.254 210.091 637.252L210.086 637.246L210.074 637.234L210.046 637.203C210.025 637.181 209.999 637.153 209.97 637.12C209.91 637.053 209.833 636.966 209.741 636.858C209.555 636.641 209.307 636.338 209.004 635.942C208.398 635.15 207.577 633.989 206.616 632.405C204.693 629.237 202.217 624.39 199.784 617.45C194.92 603.57 190.244 581.351 190.496 547.473C190.748 513.598 195.929 483.169 201.038 461.219C203.595 450.238 206.137 441.363 208.045 435.22C208.999 432.148 209.795 429.759 210.355 428.129C210.636 427.315 210.857 426.69 211.009 426.265C211.086 426.053 211.145 425.89 211.186 425.779L211.233 425.65L211.25 425.605L211.251 425.601C211.252 425.6 211.252 425.599 214.999 427C218.745 428.401 218.746 428.401 218.746 428.4L218.744 428.405L218.735 428.428L218.697 428.533C218.674 428.596 218.643 428.681 218.604 428.787C218.584 428.842 218.562 428.903 218.538 428.97C218.398 429.361 218.189 429.951 217.921 430.731C217.385 432.289 216.614 434.602 215.685 437.593C213.827 443.576 211.337 452.264 208.83 463.033C203.813 484.585 198.742 514.407 198.496 547.532C198.25 580.653 202.824 601.935 207.334 614.804C209.589 621.239 211.831 625.579 213.455 628.255C214.267 629.593 214.926 630.517 215.358 631.081C215.573 631.363 215.732 631.555 215.825 631.663C215.854 631.698 215.877 631.724 215.892 631.741C215.904 631.753 215.919 631.768 215.937 631.785C216.012 631.857 216.142 631.98 216.328 632.146C216.699 632.477 217.294 632.983 218.122 633.61C219.778 634.865 222.37 636.609 225.984 638.43ZM215.918 631.771C215.921 631.774 215.92 631.772 215.913 631.765L215.918 631.771ZM212.996 634.502L210.096 637.257L210.107 637.268L210.118 637.28L212.996 634.502ZM323.486 609.455C323.486 609.455 323.493 609.457 323.507 609.465C323.493 609.46 323.486 609.456 323.486 609.455Z" fill="black"/>
<path fill-rule="evenodd" clip-rule="evenodd" d="M180.193 279.903C181.607 286.253 183.21 290.744 184.496 293.057L184.576 293.202L184.643 293.352C186.769 298.051 191.106 304.005 196.7 310.458C202.236 316.844 208.779 323.467 215.074 329.483C221.362 335.492 227.362 340.856 231.792 344.72C234.006 346.651 235.824 348.204 237.088 349.273C237.719 349.807 238.211 350.22 238.545 350.499C238.711 350.638 238.838 350.743 238.923 350.814L239.017 350.892L239.046 350.916C239.046 350.916 239.047 350.916 239.046 350.916L240.982 352.515L233.883 381.453L226.113 379.547L232.021 355.465C231.988 355.437 231.954 355.409 231.92 355.38C230.63 354.288 228.781 352.709 226.534 350.749C222.041 346.831 215.947 341.383 209.547 335.267C203.155 329.158 196.417 322.344 190.656 315.698C185.001 309.176 180.062 302.561 177.421 296.795C175.61 293.473 173.837 288.166 172.384 281.642C170.891 274.936 169.677 266.682 169.138 257.444C168.06 238.988 169.663 216.399 177.277 194.262C184.906 172.084 198.584 150.33 221.622 133.761C244.634 117.21 276.695 106.041 320.755 104.506C356.561 101.431 394.327 117.877 425.476 137.95C456.742 158.099 482.067 182.376 493.103 195.98L493.132 196.015L493.159 196.05C509.228 216.785 520.13 250.788 527.009 279.054C530.473 293.289 532.96 306.257 534.58 315.665C535.391 320.371 535.986 324.191 536.379 326.839C536.575 328.163 536.721 329.195 536.818 329.898C536.867 330.25 536.903 330.52 536.927 330.703L536.955 330.912L536.962 330.967L536.965 330.986C536.965 330.987 536.965 330.988 532.998 331.5C529.031 332.012 529.031 332.012 529.031 332.012L529.023 331.953L528.998 331.761C528.983 331.653 528.964 331.51 528.94 331.334C528.926 331.232 528.911 331.118 528.893 330.993C528.8 330.315 528.657 329.309 528.465 328.013C528.08 325.419 527.495 321.661 526.696 317.023C525.098 307.743 522.647 294.961 519.236 280.946C512.369 252.729 501.779 220.255 486.863 200.986C476.384 188.081 451.726 164.384 421.143 144.675C390.447 124.893 354.506 109.601 321.343 112.485L321.239 112.494L321.135 112.498C278.248 113.977 247.779 124.803 226.293 140.255C204.817 155.701 192.026 175.978 184.842 196.864C177.645 217.789 176.092 239.293 177.124 256.978C177.64 265.811 178.798 273.638 180.193 279.903Z" fill="black"/>
<path d="M147.501 250.5C147.502 247.001 146.819 240.5 157.001 228.5C167.182 216.5 186.501 217.001 205 226C223.5 234.999 222 255 222 255C222 255 224.5 274.998 190.5 279.998C156.5 284.998 147.5 253.998 147.501 250.5Z" fill="#FDA948"/>
<path d="M183.731 235.427C183.731 235.427 183.276 233.007 186.524 231.87C189.772 230.734 191.224 232.626 191.224 232.626L202.35 262.392C202.35 262.392 202.544 266.133 199.82 267.173C197.096 268.212 194.856 265.193 194.856 265.193L183.731 235.427Z" fill="black"/>
<path d="M159.623 241.799C159.623 241.799 158.125 236.3 161.53 234.972C164.935 233.644 167.469 238.364 167.469 238.364L176.5 260.498C176.5 260.498 177.026 264.321 174.168 265.513C171.309 266.704 169.085 264.196 169.085 264.196L159.623 241.799Z" fill="black"/>
<path d="M16.5441 101.847C18.2523 95.99 25.169 93.4938 30.2235 96.9096L115.591 154.601C119.709 157.384 117.684 163.819 112.715 163.743L4.24775 162.081C1.60688 162.04 -0.27048 159.497 0.469048 156.961L16.5441 101.847Z" fill="#FCA646"/>
<path d="M165.724 0.384395C168.768 0.181469 171.282 2.7281 171.041 5.76919L162.122 118.056C161.708 123.276 154.565 124.427 152.531 119.602L109.45 17.429C106.781 11.0981 111.144 4.02302 118 3.56599L165.724 0.384395Z" fill="#FCA646"/>
<path d="M70.7159 13.8087C72.6513 12.1152 75.6589 12.6618 76.8747 14.928L137.207 127.384C140.124 132.82 133.924 138.59 128.711 135.291L23.5479 68.7268C19.0305 65.8675 18.535 59.467 22.5584 55.9465L70.7159 13.8087Z" fill="#FCA646"/>
</g>
</svg>
